<?xml version="1.0" encoding="UTF-8" standalone="no"?>
<!DOCTYPE svg PUBLIC "-//W3C//DTD SVG 1.1//EN"
 "http://www.w3.org/Graphics/SVG/1.1/DTD/svg11.dtd">
<!-- Generated by graphviz version 2.40.1 (20161225.0304)
 -->
<!-- Title: dependencies Pages: 1 -->
<svg width="582pt" height="287pt"
 viewBox="0.00 0.00 582.00 287.00" xmlns="http://www.w3.org/2000/svg" xmlns:xlink="http://www.w3.org/1999/xlink">
<g id="graph0" class="graph" transform="scale(1 1) rotate(0) translate(4 283)">
<title>dependencies</title>
<polygon fill="#ffffff" stroke="transparent" points="-4,4 -4,-283 578,-283 578,4 -4,4"/>
<text text-anchor="start" x="266.0091" y="-42.4" font-family="sans-serif" font-weight="bold" font-size="14.00" fill="#000000">Legend</text>
<polygon fill="#ffffb3" stroke="transparent" points="53,-10 53,-30 73,-30 73,-10 53,-10"/>
<text text-anchor="start" x="76.629" y="-15.4" font-family="sans-serif" font-size="14.00" fill="#000000"> &#160;Declarations</text>
<polygon fill="#8dd3c7" stroke="transparent" points="166,-10 166,-30 186,-30 186,-10 166,-10"/>
<text text-anchor="start" x="189.7251" y="-15.4" font-family="sans-serif" font-size="14.00" fill="#000000"> &#160;Module</text>
<polygon fill="#80b1d3" stroke="transparent" points="252,-10 252,-30 272,-30 272,-10 252,-10"/>
<text text-anchor="start" x="275.7812" y="-15.4" font-family="sans-serif" font-size="14.00" fill="#000000"> &#160;Bootstrap</text>
<polygon fill="#fdb462" stroke="transparent" points="349,-10 349,-30 369,-30 369,-10 349,-10"/>
<text text-anchor="start" x="372.6732" y="-15.4" font-family="sans-serif" font-size="14.00" fill="#000000"> &#160;Providers</text>
<polygon fill="#fb8072" stroke="transparent" points="445,-10 445,-30 465,-30 465,-10 445,-10"/>
<text text-anchor="start" x="468.7258" y="-15.4" font-family="sans-serif" font-size="14.00" fill="#000000"> &#160;Exports</text>
<g id="clust1" class="cluster">
<title>cluster_AppModule</title>
<polygon fill="none" stroke="#000000" stroke-dasharray="1,5" points="218,-146 218,-271 448,-271 448,-146 218,-146"/>
</g>
<g id="clust3" class="cluster">
<title>cluster_AppModule_imports</title>
<polygon fill="none" stroke="#000000" points="226,-154 226,-206 440,-206 440,-154 226,-154"/>
</g>
<g id="clust7" class="cluster">
<title>cluster_AuthModule</title>
<polygon fill="none" stroke="#000000" stroke-dasharray="1,5" points="8,-70 8,-138 400,-138 400,-70 8,-70"/>
</g>
<g id="clust10" class="cluster">
<title>cluster_AuthModule_exports</title>
<polygon fill="none" stroke="#000000" points="290,-78 290,-130 392,-130 392,-78 290,-78"/>
</g>
<g id="clust12" class="cluster">
<title>cluster_AuthModule_providers</title>
<polygon fill="none" stroke="#000000" points="16,-78 16,-130 282,-130 282,-78 16,-78"/>
</g>
<g id="clust13" class="cluster">
<title>cluster_TasksModule</title>
<polygon fill="none" stroke="#000000" stroke-dasharray="1,5" points="408,-70 408,-138 566,-138 566,-70 408,-70"/>
</g>
<g id="clust18" class="cluster">
<title>cluster_TasksModule_providers</title>
<polygon fill="none" stroke="#000000" points="416,-78 416,-130 558,-130 558,-78 416,-78"/>
</g>
<!-- AuthModule -->
<g id="node1" class="node">
<title>AuthModule</title>
<polygon fill="#8dd3c7" stroke="#000000" points="321.5482,-198 318.5482,-202 297.5482,-202 294.5482,-198 234.4518,-198 234.4518,-162 321.5482,-162 321.5482,-198"/>
<text text-anchor="middle" x="278" y="-175.8" font-family="Times,serif" font-size="14.00" fill="#000000">AuthModule</text>
</g>
<!-- AppModule -->
<g id="node3" class="node">
<title>AppModule</title>
<polygon fill="#8dd3c7" stroke="#000000" points="373.6571,-263 370.6571,-267 349.6571,-267 346.6571,-263 290.3429,-263 290.3429,-227 373.6571,-227 373.6571,-263"/>
<text text-anchor="middle" x="332" y="-240.8" font-family="Times,serif" font-size="14.00" fill="#000000">AppModule</text>
</g>
<!-- AuthModule&#45;&gt;AppModule -->
<g id="edge1" class="edge">
<title>AuthModule&#45;&gt;AppModule</title>
<path fill="none" stroke="#000000" d="M305.9727,-198.1061C305.9727,-198.1061 305.9727,-216.991 305.9727,-216.991"/>
<polygon fill="#000000" stroke="#000000" points="302.4727,-216.9909 305.9727,-226.991 309.4727,-216.991 302.4727,-216.9909"/>
</g>
<!-- JwtStrategy  -->
<g id="node4" class="node">
<title>JwtStrategy </title>
<polygon fill="#fb8072" stroke="#000000" points="383.5964,-122 298.4036,-122 298.4036,-86 383.5964,-86 383.5964,-122"/>
<text text-anchor="middle" x="341" y="-99.8" font-family="Times,serif" font-size="14.00" fill="#000000">JwtStrategy </text>
</g>
<!-- AuthModule&#45;&gt;JwtStrategy  -->
<g id="edge3" class="edge">
<title>AuthModule&#45;&gt;JwtStrategy </title>
<path fill="none" stroke="#000000" stroke-dasharray="5,2" d="M309.9879,-161.9891C309.9879,-161.9891 309.9879,-132.145 309.9879,-132.145"/>
<polygon fill="#000000" stroke="#000000" points="313.488,-132.145 309.9879,-122.145 306.488,-132.1451 313.488,-132.145"/>
</g>
<!-- TasksModule -->
<g id="node2" class="node">
<title>TasksModule</title>
<polygon fill="#8dd3c7" stroke="#000000" points="432.2064,-198 429.2064,-202 408.2064,-202 405.2064,-198 339.7936,-198 339.7936,-162 432.2064,-162 432.2064,-198"/>
<text text-anchor="middle" x="386" y="-175.8" font-family="Times,serif" font-size="14.00" fill="#000000">TasksModule</text>
</g>
<!-- TasksModule&#45;&gt;AppModule -->
<g id="edge2" class="edge">
<title>TasksModule&#45;&gt;AppModule</title>
<path fill="none" stroke="#000000" d="M356.8626,-198.1061C356.8626,-198.1061 356.8626,-216.991 356.8626,-216.991"/>
<polygon fill="#000000" stroke="#000000" points="353.3626,-216.9909 356.8626,-226.991 360.3626,-216.991 353.3626,-216.9909"/>
</g>
<!-- AuthService -->
<g id="node5" class="node">
<title>AuthService</title>
<ellipse fill="#fdb462" stroke="#000000" cx="215" cy="-104" rx="59.1083" ry="18"/>
<text text-anchor="middle" x="215" y="-99.8" font-family="Times,serif" font-size="14.00" fill="#000000">AuthService</text>
</g>
<!-- AuthService&#45;&gt;AuthModule -->
<g id="edge4" class="edge">
<title>AuthService&#45;&gt;AuthModule</title>
<path fill="none" stroke="#000000" d="M254.2652,-117.5873C254.2652,-117.5873 254.2652,-151.9574 254.2652,-151.9574"/>
<polygon fill="#000000" stroke="#000000" points="250.7653,-151.9574 254.2652,-161.9574 257.7653,-151.9575 250.7653,-151.9574"/>
</g>
<!-- JwtStrategy -->
<g id="node6" class="node">
<title>JwtStrategy</title>
<ellipse fill="#fdb462" stroke="#000000" cx="81" cy="-104" rx="56.7561" ry="18"/>
<text text-anchor="middle" x="81" y="-99.8" font-family="Times,serif" font-size="14.00" fill="#000000">JwtStrategy</text>
</g>
<!-- JwtStrategy&#45;&gt;AuthModule -->
<g id="edge5" class="edge">
<title>JwtStrategy&#45;&gt;AuthModule</title>
<path fill="none" stroke="#000000" d="M81,-122.0109C81,-144.4852 81,-180 81,-180 81,-180 224.2793,-180 224.2793,-180"/>
<polygon fill="#000000" stroke="#000000" points="224.2793,-183.5001 234.2793,-180 224.2793,-176.5001 224.2793,-183.5001"/>
</g>
<!-- TasksService -->
<g id="node7" class="node">
<title>TasksService</title>
<ellipse fill="#fdb462" stroke="#000000" cx="487" cy="-104" rx="62.5354" ry="18"/>
<text text-anchor="middle" x="487" y="-99.8" font-family="Times,serif" font-size="14.00" fill="#000000">TasksService</text>
</g>
<!-- TasksService&#45;&gt;TasksModule -->
<g id="edge6" class="edge">
<title>TasksService&#45;&gt;TasksModule</title>
<path fill="none" stroke="#000000" d="M428.2927,-110.2194C428.2927,-110.2194 428.2927,-151.7583 428.2927,-151.7583"/>
<polygon fill="#000000" stroke="#000000" points="424.7928,-151.7583 428.2927,-161.7583 431.7928,-151.7584 424.7928,-151.7583"/>
</g>
</g>
</svg>
